<?xml version="1.0" encoding="UTF-8"?>
<svg xmlns="http://www.w3.org/2000/svg" id="Layer_1" version="1.1" viewBox="0 0 378.3 227.2">
  <!-- Generator: Adobe Illustrator 29.0.1, SVG Export Plug-In . SVG Version: 2.1.0 Build 192)  -->
  <defs>
    <style>
      .st0 {
        fill: #231f20;
      }

      .st1 {
        fill: #ed1c24;
      }

      .st2 {
        fill: #636466;
      }
    </style>
  </defs>
  <g>
    <path class="st1" d="M69.3,103.6c2.1-.1,4-.5,5.9-1,.3,0,2.2-.6,3.6-1.2,3.9-1.6,7.6-3.5,11.2-5.8,2.8-1.7,7.2-4.9,11-7.9,3.9-3.2,7.8-6.6,11.4-10.1,7.9-7.6,14.7-15.1,21.6-23.6,6.7-8.3,13.1-16.9,18.9-25.9,2.6-4.1,5.2-8.2,7.6-12.5.5-.9,1-1.8,1.5-2.7.2-.4.3-.6.4-.8,0,0,0-.2.1-.2.8-1.6,1.6-3.2,2.3-4.9,3.8-8.4,15.5-9.7,19.9-.9,7.3,14.7,14.7,30.2,23.5,42.6,15.4,21.8,36.3,39.2,58.4,53.8,5.4,3.6,6.6,11.4,2.9,16.6-3.9,5.6-11,6.3-16.6,2.9-15-9-32.6-12.5-50.2-14.2-14-1.3-28.4-1.7-42.4-1.5-13.1.2-13.2-20.4-.9-22.5,15.7-2.7,32.4-3.2,48.8-1.2-5.7-6.4-11.1-13.1-16.2-20.1-6.5-9.1-12-18.6-17.2-28.4-5,8.4-10.5,16.4-16.3,24.1-11.6,15.6-24.6,30.5-39.5,43-13.9,11.7-32.2,24.2-51.3,22.8-15.9-1.1-24.7-14.7-26.1-29.5-1.7-17.1,1.6-34.2,5.6-50.7,3.2-13.5,7.5-26.8,12.6-39.7,3.1-7.9,14-3.4,12.1,4.5-4,16.5-8.5,34.8-10.8,53.1-.6,4.3-1,8.7-1.2,13,0,1.9-.2,3.9-.2,5.8,0,.9,0,1.9,0,2.8,0,.1.1,2.2,0,1.8.2,3.4.6,6.7,1.4,10,.1.4.2.8.3,1.3.3.9,1.1,3.9,2.8,5.4,1.7,1.5,3.1,1.8,5,1.8"/>
    <path class="st1" d="M331.9,114.6c-12.6-16.7-25-33.4-34.1-52.3-8.2-17-14-35-16.6-53.7-.8-5.6-6.6-9.4-12-8.4-6,1.1-8.8,6.4-8.4,12,1.5,20.7,9,40.7,18.5,59,10.5,20.3,24.4,40.8,44.5,52.5,6.1,3.5,12.6-3.3,8.2-9"/>
    <path class="st0" d="M2.5,164.8h2.7v3.5h-2.7v-3.5ZM2.6,176.1c0-.6-.3-.9-.9-.9H0v-2.4h2.9c1.7,0,2.5.7,2.5,2.5v14.5c0,.6.3.9.9.9h1.7v2.4h-2.9c-1.7,0-2.5-.7-2.5-2.5v-14.5Z"/>
    <path class="st0" d="M17.9,191.2c3.9,0,6.2-4,6.2-7.5v-.9h-1.2c-3.2,0-9.5,0-9.5,4.6s1.5,3.8,4.5,3.8M23,180.6h1.1v-.2c0-4.2-1.5-5.7-5.2-5.7s-3.9.3-3.9,1.8v1.3h-2.6v-1.9c0-2.8,4.8-3.4,6.6-3.4,6.4,0,7.9,3.4,7.9,7.8v9.7c0,.6.3.9.9.9h1.7v2.4h-2.8c-1.7,0-2.4-.8-2.4-2.4s0-1.5,0-1.5h0s-1.7,4.4-6.7,4.4-6.9-2-6.9-6c0-6.7,8.9-7,12.4-7"/>
    <path class="st0" d="M33.9,164.8h2.7v3.5h-2.7v-3.5ZM34,176.1c0-.6-.3-.9-.9-.9h-1.7v-2.4h2.9c1.7,0,2.5.7,2.5,2.5v14.5c0,.6.3.9.9.9h1.7v2.4h-2.9c-1.7,0-2.5-.7-2.5-2.5v-14.5Z"/>
    <path class="st0" d="M55,164.8h2.7v3.5h-2.7v-3.5ZM55.1,176.1c0-.6-.3-.9-.9-.9h-1.7v-2.4h2.9c1.7,0,2.5.7,2.5,2.5v14.5c0,.6.3.9.9.9h1.7v2.4h-2.9c-1.7,0-2.5-.7-2.5-2.5v-14.5Z"/>
    <path class="st0" d="M65,176.1c0-.6-.3-.9-.9-.9h-1.7v-2.4h2.8c1.7,0,2.5.7,2.5,2.3v.9c0,.8,0,1.5,0,1.5h0c.7-1.9,3.3-5.1,8.1-5.1s6.8,2.9,6.8,7.9v9.6c0,.6.3.9.9.9h1.7v2.4h-2.9c-1.7,0-2.5-.7-2.5-2.5v-9.7c0-3.2-.5-6-4.4-6s-6.4,2.4-7.4,5.7c-.2.8-.3,1.8-.3,2.7v9.7h-2.7v-17Z"/>
    <path class="st0" d="M103.5,182.9c0-4.1-2.1-8.1-6.4-8.1s-6.5,3-6.5,8.1,2.6,8.2,6.4,8.2,6.6-2.4,6.6-8.2M96.8,172.3c4.9,0,6.6,3.8,6.6,3.8h0s0-.7,0-1.5v-6.6c0-.6-.3-.9-.9-.9h-1.7v-2.4h2.9c1.7,0,2.5.7,2.5,2.5v22.6c0,.6.3.9.9.9h1.7v2.4h-2.8c-1.7,0-2.4-.8-2.4-2.3s0-1.3,0-1.3h0s-1.7,4-7,4-8.8-4.3-8.8-10.6,3.8-10.6,9.1-10.6"/>
    <path class="st0" d="M113.1,176.1c0-.6-.3-.9-.9-.9h-1.7v-2.4h2.9c1.7,0,2.5.7,2.5,2.4v9.8c0,3.2.5,6,4.4,6s7.5-4.1,7.5-8.5v-9.7h2.7v17c0,.6.3.9.9.9h1.7v2.4h-2.8c-1.7,0-2.5-.7-2.5-2.3v-.9c0-.8,0-1.4,0-1.4h0c-.8,2-3.5,5.1-7.9,5.1s-6.8-2.6-6.8-7.9v-9.6Z"/>
    <path class="st0" d="M136.7,188.1s2.3,3.1,6.2,3.1,4.3-1.1,4.3-3.2c0-4.4-11.4-3.6-11.4-10.2s3.1-5.5,7.2-5.5,6.2.8,6.2,3.7v1.7h-2.6v-1c0-1.5-2.2-2.1-3.5-2.1-2.8,0-4.5,1-4.5,2.9,0,4.6,11.4,3.5,11.4,10.2s-3.1,5.7-7.1,5.7-7.8-3.5-7.8-3.5l1.6-1.9Z"/>
    <path class="st0" d="M155.4,175.1h-2.7v-2.3h2.7v-5.6h2.7v5.6h5.1v2.3h-5.1v10.3c0,4.8,3,5.4,4.6,5.4s.9,0,.9,0v2.5s-.5,0-1.2,0c-2.3,0-7-.8-7-7.5v-10.6Z"/>
    <path class="st0" d="M168.7,176.1c0-.6-.3-.9-.9-.9h-1.7v-2.4h2.8c1.7,0,2.5.7,2.5,2.3v1.4c0,.8,0,1.5,0,1.5h0c1-3.1,3.2-5.4,6.4-5.4s1.1.1,1.1.1v2.7s-.5,0-1,0c-2.9,0-5,2.3-5.9,5.2-.4,1.3-.6,2.7-.6,3.9v8.5h-2.7v-17Z"/>
    <path class="st0" d="M183.4,164.8h2.7v3.5h-2.7v-3.5ZM183.5,176.1c0-.6-.3-.9-.9-.9h-1.7v-2.4h2.9c1.7,0,2.5.7,2.5,2.5v14.5c0,.6.3.9.9.9h1.7v2.4h-2.9c-1.7,0-2.5-.7-2.5-2.5v-14.5Z"/>
    <path class="st0" d="M198.8,191.2c3.9,0,6.2-4,6.2-7.5v-.9h-1.2c-3.2,0-9.5,0-9.5,4.6s1.5,3.8,4.5,3.8M203.9,180.6h1.1v-.2c0-4.2-1.5-5.7-5.2-5.7s-3.9.3-3.9,1.8v1.3h-2.6v-1.9c0-2.8,4.8-3.4,6.6-3.4,6.4,0,7.9,3.4,7.9,7.8v9.7c0,.6.3.9.9.9h1.7v2.4h-2.8c-1.7,0-2.4-.8-2.4-2.4s0-1.5,0-1.5h0s-1.7,4.4-6.7,4.4-6.9-2-6.9-6c0-6.7,8.9-7,12.4-7"/>
    <path class="st0" d="M214.7,168c0-.6-.3-.9-.9-.9h-1.7v-2.4h2.9c1.7,0,2.5.7,2.5,2.5v22.6c0,.6.3.9.9.9h1.7v2.4h-2.9c-1.7,0-2.5-.7-2.5-2.5v-22.6Z"/>
    <path class="st0" d="M234.8,188.1s2.3,3.1,6.2,3.1,4.3-1.1,4.3-3.2c0-4.4-11.4-3.6-11.4-10.2s3.1-5.5,7.2-5.5,6.2.8,6.2,3.7v1.7h-2.6v-1c0-1.5-2.2-2.1-3.5-2.1-2.8,0-4.5,1-4.5,2.9,0,4.6,11.4,3.5,11.4,10.2s-3.1,5.7-7.1,5.7-7.8-3.5-7.8-3.5l1.6-1.9Z"/>
    <path class="st0" d="M254.4,199.1c1.8,0,3-1.5,3.7-3.3l1.2-2.8-7.1-16.9c-.3-.7-.7-.9-1.4-.9h-.4v-2.4h1.2c1.8,0,2.4.4,3.1,2.2l5.2,12.6c.4,1,.7,2.2.7,2.2h0s.3-1.2.7-2.2l5-12.6c.7-1.8,1.3-2.2,3.1-2.2h1.2v2.4h-.4c-.7,0-1.1.2-1.4.9l-8.7,21.2c-1,2.6-3.1,4.2-5.8,4.2s-4.4-2-4.4-2l1.3-2s1.3,1.5,3,1.5"/>
    <path class="st0" d="M274.2,188.1s2.3,3.1,6.2,3.1,4.3-1.1,4.3-3.2c0-4.4-11.4-3.6-11.4-10.2s3.1-5.5,7.2-5.5,6.2.8,6.2,3.7v1.7h-2.6v-1c0-1.5-2.2-2.1-3.5-2.1-2.8,0-4.5,1-4.5,2.9,0,4.6,11.4,3.5,11.4,10.2s-3.1,5.7-7.1,5.7-7.8-3.5-7.8-3.5l1.6-1.9Z"/>
    <path class="st0" d="M293,175.1h-2.7v-2.3h2.7v-5.6h2.7v5.6h5.1v2.3h-5.1v10.3c0,4.8,3,5.4,4.6,5.4s.9,0,.9,0v2.5s-.5,0-1.2,0c-2.3,0-7.1-.8-7.1-7.5v-10.6Z"/>
    <path class="st0" d="M319.6,180.9c-.2-4.2-2.7-6.2-5.7-6.2s-6.3,2.2-7,6.2h12.7ZM313.9,172.3c5.6,0,8.5,4.3,8.5,9.3s0,1.4,0,1.4h-15.5c0,5.1,3.7,8.1,7.9,8.1s6.1-2.5,6.1-2.5l1.3,2.1s-2.9,2.9-7.5,2.9-10.6-4.3-10.6-10.6,4.6-10.6,10-10.6"/>
    <path class="st0" d="M327.9,176.1c0-.6-.3-.9-.9-.9h-1.7v-2.4h2.8c1.7,0,2.5.7,2.5,2.3v.9c0,.8,0,1.5,0,1.5h0c1-2.7,4.2-5.1,7.3-5.1s5.7,1.7,6.3,5.1h0c1.1-2.7,4-5.1,7.5-5.1,4.9,0,6.7,2.9,6.7,7.9v9.6c0,.6.3.9.9.9h1.7v2.4h-2.9c-1.7,0-2.5-.7-2.5-2.5v-9.7c0-3.3-.7-6-4.4-6s-5.6,2.7-6.4,5.7c-.3.9-.4,1.9-.4,2.9v9.6h-2.7v-12.2c0-3.1-.4-6-4.3-6s-5.8,2.9-6.6,6c-.2.8-.3,1.8-.3,2.7v9.6h-2.7v-17Z"/>
    <path class="st0" d="M364.6,188.1s2.3,3.1,6.2,3.1,4.3-1.1,4.3-3.2c0-4.4-11.4-3.6-11.4-10.2s3.1-5.5,7.2-5.5,6.2.8,6.2,3.7v1.7h-2.6v-1c0-1.5-2.2-2.1-3.5-2.1-2.8,0-4.5,1-4.5,2.9,0,4.6,11.4,3.5,11.4,10.2s-3.1,5.7-7.1,5.7-7.8-3.5-7.8-3.5l1.6-1.9Z"/>
  </g>
  <g>
    <path class="st2" d="M271.9,216.5c0,3.9-2.1,6.5-5.3,6.5s-3.1-.8-3.8-2h0v6.3h-2.2v-16.9h2.2v1.8h0c.7-1.3,2.2-2.1,3.8-2.1,3.2,0,5.3,2.5,5.3,6.5ZM262.7,216.5c0,2.9,1.3,4.8,3.4,4.8s3.5-1.9,3.5-4.8-1.4-4.7-3.5-4.7-3.4,1.8-3.4,4.7Z"/>
    <path class="st2" d="M284.3,214.7v4.7c0,1.4.1,2.4.3,3.2h-2c-.1-.6-.2-1.2-.2-1.8h0c-.9,1.3-2.3,2.1-4.4,2.1s-4.3-1.5-4.3-3.6,1.2-3.3,4.8-3.9c1.1-.2,2.7-.3,3.6-.4v-.5c0-2-1.2-2.9-2.8-2.9s-2.8,1-2.9,2.5h-2.2c.1-2.3,1.9-4.1,5.1-4.1s5,1.5,5,4.8ZM282.2,216.6c-1,0-2.3.2-3.3.4-2.2.3-2.9.9-2.9,2.1s.9,2.1,2.6,2.1,2-.3,2.6-1c.8-.8,1-1.5,1-2.9v-.8Z"/>
    <path class="st2" d="M294.8,210.3v1.9c-.3,0-.6,0-.9,0-2.4,0-3.7,1.5-3.7,4.2v6.3h-2.2v-12.4h2.1v1.9h0c.8-1.4,2.1-2,3.7-2s.6,0,.9,0Z"/>
    <path class="st2" d="M302.6,220.9v1.8c-.4,0-.9.1-1.4.1-2.4,0-3.4-1-3.4-3.6v-7.2h-2.2v-1.7h2.2v-3h2.2v3h2.5v1.7h-2.5v7c0,1.4.5,2,1.7,2s.7,0,.9-.1Z"/>
    <path class="st2" d="M322,216.5c0,4-2.3,6.5-6,6.5s-6-2.5-6-6.5,2.3-6.5,6-6.5,6,2.5,6,6.5ZM312.3,216.5c0,2.9,1.4,4.8,3.7,4.8s3.7-1.8,3.7-4.8-1.4-4.8-3.7-4.8-3.7,1.8-3.7,4.8Z"/>
    <path class="st2" d="M327.7,209v1.3h2.5v1.7h-2.5v10.7h-2.2v-10.7h-2.2v-1.7h2.2v-1.5c0-2.4,1.2-3.6,3.4-3.6s1,0,1.3.1v1.7c-.1,0-.4,0-.7,0-1.2,0-1.8.6-1.8,2.1Z"/>
    <path class="st2" d="M349.9,222.7v-8h-9v8h-2.3v-17.3h2.3v7.3h9v-7.3h2.3v17.3h-2.3Z"/>
    <path class="st2" d="M356.8,222.7v-17.3h2.3v17.3h-2.3Z"/>
    <path class="st2" d="M369.2,205.3c5.8,0,9.1,3.1,9.1,8.7s-3.3,8.7-9.1,8.7h-5.4v-17.3h5.4ZM366.1,220.7h3.1c4.4,0,6.8-2.3,6.8-6.7s-2.4-6.7-6.8-6.7h-3.1v13.3Z"/>
  </g>
</svg>
