<?xml version="1.0" encoding="utf-8"?>
<!-- Generator: Adobe Illustrator 27.9.0, SVG Export Plug-In . SVG Version: 6.00 Build 0)  -->
<svg version="1.1" id="Laag_1" xmlns="http://www.w3.org/2000/svg" xmlns:xlink="http://www.w3.org/1999/xlink" x="0px" y="0px"
	 viewBox="0 0 1276 262" enable-background="new 0 0 1276 262" xml:space="preserve">
<path fill="none" stroke="#FFFFFF" stroke-width="12" stroke-miterlimit="10" d="M29.5,25.3h69.2l48.2,154.1l47.6-154.1h67.1
	L182,239.4h-71.7L29.5,25.3z"/>
<path fill="none" stroke="#FFFFFF" stroke-width="12" stroke-miterlimit="10" d="M578.1,186.6H474.9V25.3h-66.2v134.6L358.2,25.3
	H286l-80.5,214.1h67.5l15.5-41c33,17.2,67.6,0.2,67.6,0.2l13.1,40.7h69.3l0,0h139.5V186.6z M302.4,148l18.8-67.2l23.4,68.9
	C344.7,149.7,321.1,166.9,302.4,148z"/>
<path fill="none" stroke="#FFFFFF" stroke-width="12" stroke-miterlimit="10" d="M600,25.3h66.3v214.1H600V25.3z"/>
<path fill="none" stroke="#FFFFFF" stroke-width="12" stroke-miterlimit="10" d="M1222.1,50.3c-19.3-19.1-46.7-28.7-82.4-28.7
	c-34.8,0-61.9,9.7-81.3,29.2c-2,2-3.8,4.1-5.6,6.2c-4.3-8.3-10.1-15-17.4-20.2c-14.4-10.2-35.2-15.3-62.6-15.3
	c-22.3,0-39.8,2.8-52.6,8.4c-12.2,5.3-21.4,12.6-27.8,21.7V25.3H830v118.4L749.4,25.3h-61.8v214.1h62.2V121.8L830,239.4h62.4v-23.1
	c1.6,2,3.4,3.9,5.2,5.7c14,14,39.2,21,75.6,21c20.7,0,37.9-3,51.6-9c12.6-5.5,22.6-13.5,30-23.8c7.9,9.1,17.1,16.2,27.6,21.3
	c15.8,7.7,35.8,11.5,59.9,11.5c23.8,0,43.6-4.5,59.5-13.4c15.9-8.9,28.1-21.4,36.5-37.4c8.4-16,12.6-36.5,12.6-61.6
	C1251,96.2,1241.4,69.4,1222.1,50.3z M996.1,194.3c-5.1,4.4-12.4,6.6-21.8,6.6c-12.7,0-22.4-4.3-29.2-13c-4.2-5.4-7-13.1-8.3-23.4
	l-44.3,2.8V117c2.3,3,5,5.9,8.1,8.6c12.4,10.8,33.1,19.5,62.1,26c17.7,3.9,29,8,33.9,12.4c4.9,4.4,7.3,9.3,7.3,14.9
	C1003.7,184.7,1001.2,189.9,996.1,194.3z M970,95.4c-11.7-2.4-19.1-5.1-22.2-7.9c-3.2-2.7-4.8-5.8-4.8-9.2c0-4.7,1.9-8.6,5.8-11.9
	c3.9-3.3,9.7-4.9,17.4-4.9c9.3,0,16.7,2.2,22,6.6c5.3,4.4,8.8,11.4,10.4,21l37.5-2.2c-2.8,8.1-4.8,16.9-5.9,26.4
	C1017.6,107.3,997.5,101.3,970,95.4z M1173.2,179.6c-7.8,9.3-18.8,13.9-33,13.9c-13.8,0-24.8-4.7-32.8-14.2c-8-9.4-12-25-12-46.6
	c0-21.8,4-37.4,12.1-46.9c8.1-9.4,18.8-14.2,32.1-14.2c13.9,0,24.9,4.7,33.1,13.9c8.1,9.3,12.2,24,12.2,44.2
	C1184.8,153.8,1181,170.4,1173.2,179.6z"/>
</svg>
